<svg xmlns="http://www.w3.org/2000/svg" viewBox="0 0 880 866" width="880" height="866" role="img" aria-label="ko-hand-ocr v0.4.1 성적판. Single model: 11 of 17 items over 95%, lowest hand-06 84.2%. Ensemble: 12 of 17 over, lowest hand-06 90.3%.">
<style>
  .surface{fill:#ffffff}
  .card{fill:#f6f8fa;stroke:#d0d7de;stroke-width:1}
  .ink{fill:#1f2328}
  .ink2{fill:#59636e}
  .s1{fill:#2f81f7}
  .s2{fill:#f0883e}
  .was{stroke:#1f2328;stroke-width:2.5}
  .grid{stroke:#e6e8eb;stroke-width:1}
  .goal{stroke:#1a7f37;stroke-width:1.8;stroke-dasharray:5 3}
  .floor{stroke:#bf8700;stroke-width:1.4;stroke-dasharray:2 3}
  .pass{fill:#1a7f37}
  .warn{fill:#9a6700}
  .fail{fill:#cf222e}
  .chip-pass{fill:#dafbe1}
  .chip-warn{fill:#fff8c5}
  .chip-fail{fill:#ffebe9}
  text{font-family:-apple-system,BlinkMacSystemFont,"Segoe UI","Noto Sans KR","Malgun Gothic",Helvetica,Arial,sans-serif}
  @media (prefers-color-scheme: dark){
    .surface{fill:#0d1117}
    .card{fill:#161b22;stroke:#30363d}
    .ink{fill:#e6edf3}
    .ink2{fill:#9198a1}
    .s1{fill:#4493f8}
    .s2{fill:#f0883e}
    .was{stroke:#e6edf3}
    .grid{stroke:#262c36}
    .goal{stroke:#3fb950}
    .floor{stroke:#d29922}
    .pass{fill:#3fb950}
    .warn{fill:#d29922}
    .fail{fill:#f85149}
    .chip-pass{fill:#12261e}
    .chip-warn{fill:#272115}
    .chip-fail{fill:#2d1517}
  }
</style>
<rect class="surface" width="880" height="866" rx="12"/>
<text class="ink" x="28" y="42" font-size="24" font-weight="700">ko-hand-ocr v0.4.1 성적판</text>
<text class="ink2" x="28" y="66" font-size="13.5">학습에 안 쓴 글씨체 6벌(벌당 958~963줄) + 실제 손글씨 사진 11장 · 자모 닮음 · 끝나는 조건은 17개 전부 95% 이상</text>
<rect class="s1" x="28.0" y="83" width="14" height="12" rx="3"/>
<text class="ink" x="49.0" y="94" font-size="14.5" font-weight="700">단일 모델</text>
<rect class="card" x="28.0" y="104" width="195.5" height="92" rx="10"/>
<text class="ink2" x="44.0" y="130" font-size="14">95% 넘긴 항목</text>
<text class="ink" x="44.0" y="164" font-size="30" font-weight="700">11 / 17</text>
<text class="ink2" x="44.0" y="184" font-size="12.5">v0.4.0 보다 ▲ 1</text>
<rect class="card" x="237.5" y="104" width="195.5" height="92" rx="10"/>
<text class="ink2" x="253.5" y="130" font-size="14">가장 낮은 항목</text>
<text class="fail" x="253.5" y="164" font-size="30" font-weight="700">84.2%</text>
<text class="ink2" x="253.5" y="184" font-size="12.5">hand-06 · v0.4.0 보다 ▲ 1.2%p</text>
<rect class="s2" x="447.0" y="83" width="14" height="12" rx="3"/>
<text class="ink" x="468.0" y="94" font-size="14.5" font-weight="700">앙상블 (모델 3개)</text>
<rect class="card" x="447.0" y="104" width="195.5" height="92" rx="10"/>
<text class="ink2" x="463.0" y="130" font-size="14">95% 넘긴 항목</text>
<text class="ink" x="463.0" y="164" font-size="30" font-weight="700">12 / 17</text>
<text class="ink2" x="463.0" y="184" font-size="12.5">v0.4.0 보다 그대로</text>
<rect class="card" x="656.5" y="104" width="195.5" height="92" rx="10"/>
<text class="ink2" x="672.5" y="130" font-size="14">가장 낮은 항목</text>
<text class="warn" x="672.5" y="164" font-size="30" font-weight="700">90.3%</text>
<text class="ink2" x="672.5" y="184" font-size="12.5">hand-06 · v0.4.0 보다 그대로</text>
<rect class="s1" x="28" y="217" width="14" height="12" rx="3"/>
<text class="ink2" x="48" y="228" font-size="13">단일 모델</text>
<rect class="s2" x="124.5" y="217" width="14" height="12" rx="3"/>
<text class="ink2" x="144.5" y="228" font-size="13">앙상블 (모델 3개)</text>
<line class="was" x1="278.0" y1="215" x2="278.0" y2="230"/>
<text class="ink2" x="288.0" y="228" font-size="13">v0.4.0 값</text>
<line class="goal" x1="386.0" y1="223" x2="408.0" y2="223"/>
<text class="ink2" x="414.0" y="228" font-size="13">목표 95%</text>
<line class="floor" x1="482.0" y1="223" x2="504.0" y2="223"/>
<text class="ink2" x="510.0" y="228" font-size="13">바닥 90%</text>
<text class="ink" x="28" y="266" font-size="16.5" font-weight="700">글씨체 6벌 (학습에 안 쓴 글꼴)</text>
<line class="grid" x1="178.0" y1="282" x2="178.0" y2="544"/>
<text class="ink2" x="178.0" y="560" font-size="12" text-anchor="middle">80%</text>
<line class="grid" x1="223.5" y1="282" x2="223.5" y2="544"/>
<text class="ink2" x="223.5" y="560" font-size="12" text-anchor="middle">85%</text>
<line class="floor" x1="269.0" y1="282" x2="269.0" y2="544"/>
<text class="ink2" x="269.0" y="560" font-size="12" text-anchor="middle">90%</text>
<line class="goal" x1="314.5" y1="282" x2="314.5" y2="544"/>
<text class="ink2" x="314.5" y="560" font-size="12" text-anchor="middle">95%</text>
<line class="grid" x1="360.0" y1="282" x2="360.0" y2="544"/>
<text class="ink2" x="360.0" y="560" font-size="12" text-anchor="middle">100%</text>
<rect class="chip-warn" x="51.6" y="289" width="116.4" height="26" rx="13"/>
<text class="ink" x="159.0" y="307" font-size="14" font-weight="600" text-anchor="end">EastSeaDokdo</text>
<rect class="s1" x="178.0" y="288" width="94.8" height="13" rx="3"/>
<line class="was" x1="269.6" y1="286" x2="269.6" y2="303"/>
<text class="warn" x="278.8" y="299" font-size="12.5" font-weight="700">90.4</text>
<rect class="s2" x="178.0" y="304" width="97.1" height="13" rx="3"/>
<text class="warn" x="281.1" y="315" font-size="12.5" font-weight="700">90.7</text>
<rect class="chip-warn" x="43.4" y="333" width="124.6" height="26" rx="13"/>
<text class="ink" x="159.0" y="351" font-size="14" font-weight="600" text-anchor="end">KirangHaerang</text>
<rect class="s1" x="178.0" y="332" width="133.7" height="13" rx="3"/>
<text class="warn" x="317.7" y="343" font-size="12.5" font-weight="700">94.7</text>
<rect class="s2" x="178.0" y="348" width="133.9" height="13" rx="3"/>
<text class="warn" x="317.9" y="359" font-size="12.5" font-weight="700">94.7</text>
<rect class="chip-pass" x="84.4" y="377" width="83.6" height="26" rx="13"/>
<text class="ink" x="159.0" y="395" font-size="14" font-weight="600" text-anchor="end">HiMelody</text>
<rect class="s1" x="178.0" y="376" width="142.3" height="13" rx="3"/>
<line class="was" x1="318.1" y1="374" x2="318.1" y2="391"/>
<text class="pass" x="326.3" y="387" font-size="12.5" font-weight="700">95.6</text>
<rect class="s2" x="178.0" y="392" width="139.9" height="13" rx="3"/>
<text class="pass" x="323.9" y="403" font-size="12.5" font-weight="700">95.4</text>
<rect class="chip-pass" x="35.2" y="421" width="132.8" height="26" rx="13"/>
<text class="ink" x="159.0" y="439" font-size="14" font-weight="600" text-anchor="end">NanumPenScript</text>
<rect class="s1" x="178.0" y="420" width="144.3" height="13" rx="3"/>
<line class="was" x1="320.8" y1="418" x2="320.8" y2="435"/>
<text class="pass" x="328.3" y="431" font-size="12.5" font-weight="700">95.9</text>
<rect class="s2" x="178.0" y="436" width="144.5" height="13" rx="3"/>
<text class="pass" x="328.5" y="447" font-size="12.5" font-weight="700">95.9</text>
<rect class="chip-pass" x="59.8" y="465" width="108.2" height="26" rx="13"/>
<text class="ink" x="159.0" y="483" font-size="14" font-weight="600" text-anchor="end">GamjaFlower</text>
<rect class="s1" x="178.0" y="464" width="164.1" height="13" rx="3"/>
<line class="was" x1="341.2" y1="462" x2="341.2" y2="479"/>
<text class="pass" x="348.2" y="475" font-size="12.5" font-weight="700">98.0</text>
<rect class="s2" x="178.0" y="480" width="163.7" height="13" rx="3"/>
<text class="pass" x="347.7" y="491" font-size="12.5" font-weight="700">98.0</text>
<rect class="chip-pass" x="76.2" y="509" width="91.8" height="26" rx="13"/>
<text class="ink" x="159.0" y="527" font-size="14" font-weight="600" text-anchor="end">SingleDay</text>
<rect class="s1" x="178.0" y="508" width="173.1" height="13" rx="3"/>
<line class="was" x1="350.4" y1="506" x2="350.4" y2="523"/>
<text class="pass" x="357.4" y="519" font-size="12.5" font-weight="700">99.0</text>
<rect class="s2" x="178.0" y="524" width="172.0" height="13" rx="3"/>
<text class="pass" x="356.0" y="535" font-size="12.5" font-weight="700">98.9</text>
<text class="ink" x="458.0" y="266" font-size="16.5" font-weight="700">실제 손글씨 사진 11장</text>
<line class="grid" x1="550.0" y1="282" x2="550.0" y2="764"/>
<text class="ink2" x="550.0" y="780" font-size="12" text-anchor="middle">80%</text>
<line class="grid" x1="610.0" y1="282" x2="610.0" y2="764"/>
<text class="ink2" x="610.0" y="780" font-size="12" text-anchor="middle">85%</text>
<line class="floor" x1="670.0" y1="282" x2="670.0" y2="764"/>
<text class="ink2" x="670.0" y="780" font-size="12" text-anchor="middle">90%</text>
<line class="goal" x1="730.0" y1="282" x2="730.0" y2="764"/>
<text class="ink2" x="730.0" y="780" font-size="12" text-anchor="middle">95%</text>
<line class="grid" x1="790.0" y1="282" x2="790.0" y2="764"/>
<text class="ink2" x="790.0" y="780" font-size="12" text-anchor="middle">100%</text>
<rect class="chip-warn" x="464.6" y="289" width="75.4" height="26" rx="13"/>
<text class="ink" x="531.0" y="307" font-size="14" font-weight="600" text-anchor="end">hand-06</text>
<rect class="s1" x="550.0" y="288" width="50.6" height="13" rx="3"/>
<line class="was" x1="586.4" y1="286" x2="586.4" y2="303"/>
<text class="fail" x="606.6" y="299" font-size="12.5" font-weight="700">84.2</text>
<rect class="s2" x="550.0" y="304" width="123.3" height="13" rx="3"/>
<text class="warn" x="679.3" y="315" font-size="12.5" font-weight="700">90.3</text>
<rect class="chip-warn" x="464.6" y="333" width="75.4" height="26" rx="13"/>
<text class="ink" x="531.0" y="351" font-size="14" font-weight="600" text-anchor="end">hand-09</text>
<rect class="s1" x="550.0" y="332" width="133.3" height="13" rx="3"/>
<text class="warn" x="689.3" y="343" font-size="12.5" font-weight="700">91.1</text>
<rect class="s2" x="550.0" y="348" width="133.3" height="13" rx="3"/>
<text class="warn" x="689.3" y="359" font-size="12.5" font-weight="700">91.1</text>
<rect class="chip-pass" x="464.6" y="377" width="75.4" height="26" rx="13"/>
<text class="ink" x="531.0" y="395" font-size="14" font-weight="600" text-anchor="end">hand-10</text>
<rect class="s1" x="550.0" y="376" width="182.9" height="13" rx="3"/>
<text class="pass" x="738.9" y="387" font-size="12.5" font-weight="700">95.2</text>
<rect class="s2" x="550.0" y="392" width="154.3" height="13" rx="3"/>
<text class="warn" x="710.3" y="403" font-size="12.5" font-weight="700">92.9</text>
<rect class="chip-pass" x="464.6" y="421" width="75.4" height="26" rx="13"/>
<text class="ink" x="531.0" y="439" font-size="14" font-weight="600" text-anchor="end">hand-07</text>
<rect class="s1" x="550.0" y="420" width="189.2" height="13" rx="3"/>
<line class="was" x1="722.3" y1="418" x2="722.3" y2="435"/>
<text class="pass" x="745.2" y="431" font-size="12.5" font-weight="700">95.8</text>
<rect class="s2" x="550.0" y="436" width="180.3" height="13" rx="3"/>
<text class="pass" x="736.3" y="447" font-size="12.5" font-weight="700">95.0</text>
<rect class="chip-pass" x="464.6" y="465" width="75.4" height="26" rx="13"/>
<text class="ink" x="531.0" y="483" font-size="14" font-weight="600" text-anchor="end">hand-08</text>
<rect class="s1" x="550.0" y="464" width="200.0" height="13" rx="3"/>
<line class="was" x1="790.0" y1="462" x2="790.0" y2="479"/>
<text class="pass" x="756.0" y="475" font-size="12.5" font-weight="700">96.7</text>
<rect class="s2" x="550.0" y="480" width="200.0" height="13" rx="3"/>
<text class="pass" x="756.0" y="491" font-size="12.5" font-weight="700">96.7</text>
<rect class="chip-pass" x="464.6" y="509" width="75.4" height="26" rx="13"/>
<text class="ink" x="531.0" y="527" font-size="14" font-weight="600" text-anchor="end">hand-04</text>
<rect class="s1" x="550.0" y="508" width="187.9" height="13" rx="3"/>
<text class="pass" x="743.9" y="519" font-size="12.5" font-weight="700">95.7</text>
<rect class="s2" x="550.0" y="524" width="216.5" height="13" rx="3"/>
<text class="pass" x="772.5" y="535" font-size="12.5" font-weight="700">98.0</text>
<rect class="chip-pass" x="464.6" y="553" width="75.4" height="26" rx="13"/>
<text class="ink" x="531.0" y="571" font-size="14" font-weight="600" text-anchor="end">hand-01</text>
<rect class="s1" x="550.0" y="552" width="173.3" height="13" rx="3"/>
<text class="warn" x="729.3" y="563" font-size="12.5" font-weight="700">94.4</text>
<rect class="s2" x="550.0" y="568" width="240.0" height="13" rx="3"/>
<text class="pass" x="796.0" y="579" font-size="12.5" font-weight="700">100.0</text>
<rect class="chip-pass" x="464.6" y="597" width="75.4" height="26" rx="13"/>
<text class="ink" x="531.0" y="615" font-size="14" font-weight="600" text-anchor="end">hand-02</text>
<rect class="s1" x="550.0" y="596" width="240.0" height="13" rx="3"/>
<text class="pass" x="796.0" y="607" font-size="12.5" font-weight="700">100.0</text>
<rect class="s2" x="550.0" y="612" width="240.0" height="13" rx="3"/>
<text class="pass" x="796.0" y="623" font-size="12.5" font-weight="700">100.0</text>
<rect class="chip-pass" x="464.6" y="641" width="75.4" height="26" rx="13"/>
<text class="ink" x="531.0" y="659" font-size="14" font-weight="600" text-anchor="end">hand-03</text>
<rect class="s1" x="550.0" y="640" width="213.3" height="13" rx="3"/>
<text class="pass" x="769.3" y="651" font-size="12.5" font-weight="700">97.8</text>
<rect class="s2" x="550.0" y="656" width="240.0" height="13" rx="3"/>
<text class="pass" x="796.0" y="667" font-size="12.5" font-weight="700">100.0</text>
<rect class="chip-pass" x="464.6" y="685" width="75.4" height="26" rx="13"/>
<text class="ink" x="531.0" y="703" font-size="14" font-weight="600" text-anchor="end">hand-05</text>
<rect class="s1" x="550.0" y="684" width="160.0" height="13" rx="3"/>
<text class="warn" x="716.0" y="695" font-size="12.5" font-weight="700">93.3</text>
<rect class="s2" x="550.0" y="700" width="240.0" height="13" rx="3"/>
<text class="pass" x="796.0" y="711" font-size="12.5" font-weight="700">100.0</text>
<rect class="chip-pass" x="464.6" y="729" width="75.4" height="26" rx="13"/>
<text class="ink" x="531.0" y="747" font-size="14" font-weight="600" text-anchor="end">hand-11</text>
<rect class="s1" x="550.0" y="728" width="240.0" height="13" rx="3"/>
<text class="pass" x="796.0" y="739" font-size="12.5" font-weight="700">100.0</text>
<rect class="s2" x="550.0" y="744" width="218.9" height="13" rx="3"/>
<text class="pass" x="774.9" y="755" font-size="12.5" font-weight="700">98.2</text>
<rect class="card" x="28" y="592" width="394.0" height="156" rx="10"/>
<text class="ink" x="44" y="618" font-size="14.5" font-weight="700">읽는 법</text>
<rect class="chip-pass" x="44" y="630" width="54" height="20" rx="10"/>
<text class="pass" x="71" y="644" font-size="12.5" font-weight="700" text-anchor="middle">95</text>
<text class="ink2" x="110" y="644" font-size="13">목표 넘김</text>
<rect class="chip-warn" x="44" y="654" width="54" height="20" rx="10"/>
<text class="warn" x="71" y="668" font-size="12.5" font-weight="700" text-anchor="middle">92.5</text>
<text class="ink2" x="110" y="668" font-size="13">바닥 위, 목표 아래</text>
<rect class="chip-fail" x="44" y="678" width="54" height="20" rx="10"/>
<text class="fail" x="71" y="692" font-size="12.5" font-weight="700" text-anchor="middle">87</text>
<text class="ink2" x="110" y="692" font-size="13">바닥 밑</text>
<line class="was" x1="71" y1="701" x2="71" y2="719"/>
<text class="ink2" x="110" y="716" font-size="13">지난 릴리스(v0.4.0)의 값</text>
<text class="ink2" x="44" y="740" font-size="13">↑ 못 넘긴 항목이 위로 온다</text>
<text class="ink2" x="28" y="802" font-size="12.5">막대 가로축은 80%에서 시작한다 — 0부터 그리면 항목 사이 폭이 안 보인다.</text>
<text class="ink2" x="28" y="820" font-size="12.5">hand-12 은 재기만 하고 셈에서 뺀다(인쇄 서식 + 서명 — 손글씨 판독의 목표가 아니다).</text>
<text class="ink2" x="28" y="838" font-size="12.5">tools/verify.py, 2026-10-06 21:42 · 단일 모델 wise-v107 · 앙상블 v61-2500 + v73-5000 + v81-5000</text>
</svg>
