<svg xmlns="http://www.w3.org/2000/svg" viewBox="0 0 760 921" width="760" height="921" role="img" aria-label="Per-font accuracy over 480 handwriting fonts, grouped by whether the font was used in our training. 고르기 6벌: ko-hand-ocr 앙상블 99.2 percent, ko-hand-ocr 판 하나 98.6 percent, ddobokki/ko-trocr 85.3 percent. 두루 24벌: ko-hand-ocr 앙상블 99.0 percent, ko-hand-ocr 판 하나 98.5 percent, ddobokki/ko-trocr 83.3 percent. 학습에 쓴 벌: ko-hand-ocr 앙상블 98.2 percent, ko-hand-ocr 판 하나 98.0 percent, ddobokki/ko-trocr 82.5 percent.">
<style>
  .surface{fill:#fcfcfb}
  .ink{fill:#0b0b0b}
  .ink2{fill:#52514e}
  .ink3{fill:#82807a}
  .s0{fill:#2a78d6}
  .s1{fill:#eb6834}
  .s2{fill:#8a8880}
  .grid{stroke:#e3e2de;stroke-width:1}
  .rule{stroke:#cdccc6;stroke-width:1}
  text{font-family:-apple-system,BlinkMacSystemFont,"Segoe UI",Helvetica,Arial,sans-serif}
  @media (prefers-color-scheme: dark){
    .surface{fill:#1a1a19}
    .ink{fill:#ffffff}
    .ink2{fill:#c3c2b7}
    .ink3{fill:#8e8c84}
    .s0{fill:#3987e5}
    .s1{fill:#d95926}
    .s2{fill:#7c7a73}
    .grid{stroke:#3a3a38}
    .rule{stroke:#4a4946}
  }
</style>
<rect class="surface" width="760" height="921" rx="6"/>
<text class="ink" x="20" y="28" font-size="15" font-weight="600">글꼴 480벌 전부 — 어디까지 읽히나</text>
<text class="ink2" x="20" y="47" font-size="11.5">벌당 12줄, 모두 4320줄. 한 벌의 값은 흔들리므로 무리 합계와 분포로 본다.</text>
<rect class="s0" x="186" y="69" width="10" height="10" rx="2"/>
<text class="ink2" x="201" y="78" font-size="11.5">ko-hand-ocr 앙상블 (118M)</text>
<rect class="s1" x="374.0" y="69" width="10" height="10" rx="2"/>
<text class="ink2" x="389.0" y="78" font-size="11.5">ko-hand-ocr 판 하나 (41M)</text>
<rect class="s2" x="562.0" y="69" width="10" height="10" rx="2"/>
<text class="ink2" x="577.0" y="78" font-size="11.5">ddobokki/ko-trocr (214M)</text>
<text class="ink" x="20" y="108" font-size="12" font-weight="600">무리별 자모 닮음 — 높을수록 좋다</text>
<line class="grid" x1="196.0" y1="112.0" x2="196.0" y2="286.0"/>
<line class="grid" x1="319.5" y1="112.0" x2="319.5" y2="286.0"/>
<line class="grid" x1="443.0" y1="112.0" x2="443.0" y2="286.0"/>
<line class="grid" x1="566.5" y1="112.0" x2="566.5" y2="286.0"/>
<line class="grid" x1="690.0" y1="112.0" x2="690.0" y2="286.0"/>
<text class="ink2" x="184" y="145.0" font-size="12" text-anchor="end">고르기 6벌 · 6벌</text>
<path class="s0" d="M196,120.0 H679.5 Q683.0,120.0 683.0,123.5 V128.5 Q683.0,132.0 679.5,132.0 H196 Z"/>
<text class="ink2" x="689.0" y="130.5" font-size="10.5">99.2%</text>
<path class="s1" d="M196,135.0 H674.9 Q678.4,135.0 678.4,138.5 V143.5 Q678.4,147.0 674.9,147.0 H196 Z"/>
<text class="ink2" x="684.4" y="145.5" font-size="10.5">98.6%</text>
<path class="s2" d="M196,150.0 H565.4 Q568.9,150.0 568.9,153.5 V158.5 Q568.9,162.0 565.4,162.0 H196 Z"/>
<text class="ink2" x="574.9" y="160.5" font-size="10.5">85.3%</text>
<text class="ink2" x="184" y="206.0" font-size="12" text-anchor="end">두루 24벌 · 24벌</text>
<path class="s0" d="M196,181.0 H678.3 Q681.8,181.0 681.8,184.5 V189.5 Q681.8,193.0 678.3,193.0 H196 Z"/>
<text class="ink2" x="687.8" y="191.5" font-size="10.5">99.0%</text>
<path class="s1" d="M196,196.0 H674.2 Q677.7,196.0 677.7,199.5 V204.5 Q677.7,208.0 674.2,208.0 H196 Z"/>
<text class="ink2" x="683.7" y="206.5" font-size="10.5">98.5%</text>
<path class="s2" d="M196,211.0 H548.9 Q552.4,211.0 552.4,214.5 V219.5 Q552.4,223.0 548.9,223.0 H196 Z"/>
<text class="ink2" x="558.4" y="221.5" font-size="10.5">83.3%</text>
<text class="ink2" x="184" y="267.0" font-size="12" text-anchor="end">학습에 쓴 벌 · 450벌</text>
<path class="s0" d="M196,242.0 H671.8 Q675.3,242.0 675.3,245.5 V250.5 Q675.3,254.0 671.8,254.0 H196 Z"/>
<text class="ink2" x="681.3" y="252.5" font-size="10.5">98.2%</text>
<path class="s1" d="M196,257.0 H669.7 Q673.2,257.0 673.2,260.5 V265.5 Q673.2,269.0 669.7,269.0 H196 Z"/>
<text class="ink2" x="679.2" y="267.5" font-size="10.5">98.0%</text>
<path class="s2" d="M196,272.0 H542.3 Q545.8,272.0 545.8,275.5 V280.5 Q545.8,284.0 542.3,284.0 H196 Z"/>
<text class="ink2" x="551.8" y="282.5" font-size="10.5">82.5%</text>
<line class="rule" x1="196" y1="297" x2="690" y2="297"/>
<text class="ink3" x="196.0" y="311" font-size="10.5" text-anchor="middle">40%</text>
<text class="ink3" x="319.5" y="311" font-size="10.5" text-anchor="middle">55%</text>
<text class="ink3" x="443.0" y="311" font-size="10.5" text-anchor="middle">70%</text>
<text class="ink3" x="566.5" y="311" font-size="10.5" text-anchor="middle">85%</text>
<text class="ink3" x="690.0" y="311" font-size="10.5" text-anchor="middle">100%</text>
<text class="ink" x="20" y="335" font-size="12" font-weight="600">몇 벌이 어느 구간에 있나 (전체 480벌)</text>
<text class="ink2" x="184" y="372.0" font-size="12" text-anchor="end">0~50%</text>

<text class="ink2" x="202.0" y="357.5" font-size="10.5">0벌</text>
<path class="s1" d="M196,362.0 H197.0 Q198.0,362.0 198.0,363.0 V373.0 Q198.0,374.0 197.0,374.0 H196 Z"/>
<text class="ink2" x="204.0" y="372.5" font-size="10.5">2벌</text>
<path class="s2" d="M196,377.0 H208.4 Q211.9,377.0 211.9,380.5 V385.5 Q211.9,389.0 208.4,389.0 H196 Z"/>
<text class="ink2" x="217.9" y="387.5" font-size="10.5">16벌</text>
<text class="ink2" x="184" y="433.0" font-size="12" text-anchor="end">50~60%</text>

<text class="ink2" x="202.0" y="418.5" font-size="10.5">0벌</text>
<path class="s1" d="M196,423.0 H196.5 Q197.0,423.0 197.0,423.5 V434.5 Q197.0,435.0 196.5,435.0 H196 Z"/>
<text class="ink2" x="203.0" y="433.5" font-size="10.5">1벌</text>
<path class="s2" d="M196,438.0 H209.4 Q212.9,438.0 212.9,441.5 V446.5 Q212.9,450.0 209.4,450.0 H196 Z"/>
<text class="ink2" x="218.9" y="448.5" font-size="10.5">17벌</text>
<text class="ink2" x="184" y="494.0" font-size="12" text-anchor="end">60~70%</text>
<path class="s0" d="M196,469.0 H197.0 Q198.0,469.0 198.0,470.0 V480.0 Q198.0,481.0 197.0,481.0 H196 Z"/>
<text class="ink2" x="204.0" y="479.5" font-size="10.5">2벌</text>

<text class="ink2" x="202.0" y="494.5" font-size="10.5">0벌</text>
<path class="s2" d="M196,499.0 H231.3 Q234.8,499.0 234.8,502.5 V507.5 Q234.8,511.0 231.3,511.0 H196 Z"/>
<text class="ink2" x="240.8" y="509.5" font-size="10.5">39벌</text>
<text class="ink2" x="184" y="555.0" font-size="12" text-anchor="end">70~80%</text>
<path class="s0" d="M196,530.0 H197.5 Q199.0,530.0 199.0,531.5 V540.5 Q199.0,542.0 197.5,542.0 H196 Z"/>
<text class="ink2" x="205.0" y="540.5" font-size="10.5">3벌</text>
<path class="s1" d="M196,545.0 H196.5 Q197.0,545.0 197.0,545.5 V556.5 Q197.0,557.0 196.5,557.0 H196 Z"/>
<text class="ink2" x="203.0" y="555.5" font-size="10.5">1벌</text>
<path class="s2" d="M196,560.0 H278.0 Q281.5,560.0 281.5,563.5 V568.5 Q281.5,572.0 278.0,572.0 H196 Z"/>
<text class="ink2" x="287.5" y="570.5" font-size="10.5">86벌</text>
<text class="ink2" x="184" y="616.0" font-size="12" text-anchor="end">80~85%</text>
<path class="s0" d="M196,591.0 H198.5 Q201.0,591.0 201.0,593.5 V600.5 Q201.0,603.0 198.5,603.0 H196 Z"/>
<text class="ink2" x="207.0" y="601.5" font-size="10.5">5벌</text>
<path class="s1" d="M196,606.0 H199.5 Q203.0,606.0 203.0,609.5 V614.5 Q203.0,618.0 199.5,618.0 H196 Z"/>
<text class="ink2" x="209.0" y="616.5" font-size="10.5">7벌</text>
<path class="s2" d="M196,621.0 H241.2 Q244.7,621.0 244.7,624.5 V629.5 Q244.7,633.0 241.2,633.0 H196 Z"/>
<text class="ink2" x="250.7" y="631.5" font-size="10.5">49벌</text>
<text class="ink2" x="184" y="677.0" font-size="12" text-anchor="end">85~90%</text>
<path class="s0" d="M196,652.0 H199.0 Q202.0,652.0 202.0,655.0 V661.0 Q202.0,664.0 199.0,664.0 H196 Z"/>
<text class="ink2" x="208.0" y="662.5" font-size="10.5">6벌</text>
<path class="s1" d="M196,667.0 H198.5 Q201.0,667.0 201.0,669.5 V676.5 Q201.0,679.0 198.5,679.0 H196 Z"/>
<text class="ink2" x="207.0" y="677.5" font-size="10.5">5벌</text>
<path class="s2" d="M196,682.0 H288.9 Q292.4,682.0 292.4,685.5 V690.5 Q292.4,694.0 288.9,694.0 H196 Z"/>
<text class="ink2" x="298.4" y="692.5" font-size="10.5">97벌</text>
<text class="ink2" x="184" y="738.0" font-size="12" text-anchor="end">90~95%</text>
<path class="s0" d="M196,713.0 H220.3 Q223.8,713.0 223.8,716.5 V721.5 Q223.8,725.0 220.3,725.0 H196 Z"/>
<text class="ink2" x="229.8" y="723.5" font-size="10.5">28벌</text>
<path class="s1" d="M196,728.0 H227.3 Q230.8,728.0 230.8,731.5 V736.5 Q230.8,740.0 227.3,740.0 H196 Z"/>
<text class="ink2" x="236.8" y="738.5" font-size="10.5">35벌</text>
<path class="s2" d="M196,743.0 H321.7 Q325.2,743.0 325.2,746.5 V751.5 Q325.2,755.0 321.7,755.0 H196 Z"/>
<text class="ink2" x="331.2" y="753.5" font-size="10.5">130벌</text>
<text class="ink2" x="184" y="799.0" font-size="12" text-anchor="end">95~100%</text>
<path class="s0" d="M196,774.0 H625.8 Q629.3,774.0 629.3,777.5 V782.5 Q629.3,786.0 625.8,786.0 H196 Z"/>
<text class="ink2" x="635.3" y="784.5" font-size="10.5">436벌</text>
<path class="s1" d="M196,789.0 H618.9 Q622.4,789.0 622.4,792.5 V797.5 Q622.4,801.0 618.9,801.0 H196 Z"/>
<text class="ink2" x="628.4" y="799.5" font-size="10.5">429벌</text>
<path class="s2" d="M196,804.0 H238.2 Q241.7,804.0 241.7,807.5 V812.5 Q241.7,816.0 238.2,816.0 H196 Z"/>
<text class="ink2" x="247.7" y="814.5" font-size="10.5">46벌</text>
<text class="ink3" x="20" y="862" font-size="10.5">'학습에 쓴 벌'은 **우리** 학습 자료다. 거기 점수가 높은 것은 일반화가 아니라 '배운 것을 외웠나'이고, ko-trocr 에게는 그냥 처음 보는 글씨체다.</text>
<text class="ink3" x="20" y="877" font-size="10.5">'고르기 6벌'은 학습에서 뺐지만 조합을 고르는 데 쓴다. '두루 24벌'은 학습에서도 빼고 고르기에도 안 쓴다 — 우리 쪽에서 가장 깨끗한 자리다.</text>
<text class="ink3" x="20" y="892" font-size="10.5">세 무리를 한 숫자로 뭉개면 안 된다. 같은 시험이 아니다.</text>
<text class="ink3" x="20" y="907" font-size="10.5">잰 날 2026-09-22 12:30 · NVIDIA GeForce RTX 5060 Laptop GPU · tools/vs.py</text>
</svg>
