<svg xmlns="http://www.w3.org/2000/svg" viewBox="0 0 760 386" width="760" height="386" role="img" aria-label="Per-font jamo similarity. EastSeaDokdo 88.5 and 90.3 percent. KirangHaerang 93.2 and 93.8 percent. NanumPenScript 95.2 and 95.5 percent. HiMelody 94.6 and 95.6 percent. GamjaFlower 97.8 and 97.8 percent. SingleDay 98.6 and 99.1 percent. Goal is 95 percent for every font.">
<style>
  .surface{fill:#fcfcfb}
  .ink{fill:#0b0b0b}
  .ink2{fill:#52514e}
  .s1{fill:#2a78d6}
  .s2{fill:#eb6834}
  .grid{stroke:#e3e2de;stroke-width:1}
  .goal{stroke:#8a8880;stroke-width:1.5;stroke-dasharray:4 3}
  text{font-family:-apple-system,BlinkMacSystemFont,"Segoe UI",Helvetica,Arial,sans-serif}
  @media (prefers-color-scheme: dark){
    .surface{fill:#1a1a19}
    .ink{fill:#ffffff}
    .ink2{fill:#c3c2b7}
    .s1{fill:#3987e5}
    .s2{fill:#d95926}
    .grid{stroke:#3a3a38}
    .goal{stroke:#7c7a73}
  }
</style>
<rect class="surface" width="760" height="386" rx="6"/>
<text class="ink" x="20" y="27" font-size="15" font-weight="600">Accuracy by handwriting font — fonts never seen in training</text>
<text class="ink2" x="20" y="45" font-size="11.5">Jamo-level similarity, 400 lines per font. What has to clear the bar is not the mean but the lowest font.</text>
<rect class="s1" x="516" y="18" width="10" height="10" rx="2"/>
<text class="ink2" x="531" y="27" font-size="11.5">single (v62)</text>
<rect class="s2" x="626" y="18" width="10" height="10" rx="2"/>
<text class="ink2" x="641" y="27" font-size="11.5">3 models (ensemble)</text>
<line class="grid" x1="165.0" y1="60" x2="165.0" y2="296"/>
<line class="grid" x1="300.0" y1="60" x2="300.0" y2="296"/>
<line class="grid" x1="435.0" y1="60" x2="435.0" y2="296"/>
<line class="grid" x1="570.0" y1="60" x2="570.0" y2="296"/>
<line class="grid" x1="705.0" y1="60" x2="705.0" y2="296"/>
<line class="goal" x1="570.0" y1="58" x2="570.0" y2="296"/>
<text class="ink2" x="570.0" y="52" font-size="11" text-anchor="middle" font-weight="600">95% goal</text>
<text class="ink" x="155" y="86" font-size="12.5" text-anchor="end" font-weight="700">EastSeaDokdo</text>
<path class="s1" d="M165,68 H390.9 Q394.9,68 394.9,72 V77 Q394.9,81 390.9,81 H165 Z"/>
<text class="ink" x="401.9" y="78" font-size="11.5" font-weight="700">88.5%</text>
<path class="s2" d="M165,83 H437.9 Q441.9,83 441.9,87 V92 Q441.9,96 437.9,96 H165 Z"/>
<text class="ink" x="448.9" y="93" font-size="11.5" font-weight="700">90.3%</text>
<text class="ink" x="155" y="128" font-size="12.5" text-anchor="end" font-weight="700">KirangHaerang</text>
<path class="s1" d="M165,110 H518.6 Q522.6,110 522.6,114 V119 Q522.6,123 518.6,123 H165 Z"/>
<text class="ink" x="529.6" y="120" font-size="11.5" font-weight="700">93.2%</text>
<path class="s2" d="M165,125 H534.1 Q538.1,125 538.1,129 V134 Q538.1,138 534.1,138 H165 Z"/>
<text class="ink" x="545.1" y="135" font-size="11.5" font-weight="700">93.8%</text>
<text class="ink" x="155" y="170" font-size="12.5" text-anchor="end">NanumPenScript</text>
<path class="s1" d="M165,152 H570.9 Q574.9,152 574.9,156 V161 Q574.9,165 570.9,165 H165 Z"/>
<text class="ink2" x="581.9" y="162" font-size="11.5">95.2%</text>
<path class="s2" d="M165,167 H579.5 Q583.5,167 583.5,171 V176 Q583.5,180 579.5,180 H165 Z"/>
<text class="ink2" x="590.5" y="177" font-size="11.5">95.5%</text>
<text class="ink" x="155" y="212" font-size="12.5" text-anchor="end">HiMelody</text>
<path class="s1" d="M165,194 H554.2 Q558.2,194 558.2,198 V203 Q558.2,207 554.2,207 H165 Z"/>
<text class="ink2" x="565.2" y="204" font-size="11.5">94.6%</text>
<path class="s2" d="M165,209 H580.9 Q584.9,209 584.9,213 V218 Q584.9,222 580.9,222 H165 Z"/>
<text class="ink2" x="591.9" y="219" font-size="11.5">95.6%</text>
<text class="ink" x="155" y="254" font-size="12.5" text-anchor="end">GamjaFlower</text>
<path class="s1" d="M165,236 H640.8 Q644.8,236 644.8,240 V245 Q644.8,249 640.8,249 H165 Z"/>
<text class="ink2" x="651.8" y="246" font-size="11.5">97.8%</text>
<path class="s2" d="M165,251 H641.1 Q645.1,251 645.1,255 V260 Q645.1,264 641.1,264 H165 Z"/>
<text class="ink2" x="652.1" y="261" font-size="11.5">97.8%</text>
<text class="ink" x="155" y="296" font-size="12.5" text-anchor="end">SingleDay</text>
<path class="s1" d="M165,278 H662.9 Q666.9,278 666.9,282 V287 Q666.9,291 662.9,291 H165 Z"/>
<text class="ink2" x="673.9" y="288" font-size="11.5">98.6%</text>
<path class="s2" d="M165,293 H676.0 Q680.0,293 680.0,297 V302 Q680.0,306 676.0,306 H165 Z"/>
<text class="ink2" x="687.0" y="303" font-size="11.5">99.1%</text>
<line class="grid" x1="165" y1="296" x2="705" y2="296"/>
<text class="ink2" x="165.0" y="312" font-size="11" text-anchor="middle">80%</text>
<text class="ink2" x="300.0" y="312" font-size="11" text-anchor="middle">85%</text>
<text class="ink2" x="435.0" y="312" font-size="11" text-anchor="middle">90%</text>
<text class="ink2" x="570.0" y="312" font-size="11" text-anchor="middle">95%</text>
<text class="ink2" x="705.0" y="312" font-size="11" text-anchor="middle">100%</text>
<text class="ink2" x="20" y="336" font-size="11">The axis starts at 80%, not 0 — the spread between fonts would be invisible otherwise.</text>
<text class="ink2" x="20" y="352" font-size="11">Six OFL font families, none used in training. Produced by tools/verify.py on 2026-09-18 06:29.</text>
</svg>
